<mxfile host="app.diagrams.net" modified="2022-07-24T08:05:44.448Z" agent="5.0 (Macintosh; Intel Mac OS X 10_15_7) AppleWebKit/537.36 (KHTML, like Gecko) Chrome/103.0.5060.114 Safari/537.36 OPR/89.0.4447.48" etag="o0_GIVx9c9DvV-gzqTrJ" version="20.2.0" type="github">
  <diagram name="Planung 2022" id="55a83fd1-7818-8e21-69c5-c3457e3827bb">
    <mxGraphModel dx="1301" dy="901" grid="1" gridSize="10" guides="1" tooltips="1" connect="1" arrows="1" fold="1" page="1" pageScale="1" pageWidth="1169" pageHeight="827" background="none" math="0" shadow="0">
      <root>
        <mxCell id="0" />
        <mxCell id="1" parent="0" />
        <mxCell id="m7-iunQaiSHCx3-984IF-49" value="" style="edgeStyle=orthogonalEdgeStyle;rounded=0;orthogonalLoop=1;jettySize=auto;html=1;fontSize=16;fontColor=#000000;entryX=1.009;entryY=0.899;entryDx=0;entryDy=0;entryPerimeter=0;" edge="1" parent="1" source="m7-iunQaiSHCx3-984IF-27" target="m7-iunQaiSHCx3-984IF-41">
          <mxGeometry relative="1" as="geometry" />
        </mxCell>
        <mxCell id="m7-iunQaiSHCx3-984IF-27" value="" style="rounded=1;whiteSpace=wrap;html=1;strokeWidth=2;fillWeight=4;hachureGap=8;hachureAngle=45;fillColor=#1ba1e2;sketch=1;fontSize=16;fontColor=#000000;opacity=20;" vertex="1" parent="1">
          <mxGeometry x="640" y="84" width="480" height="706" as="geometry" />
        </mxCell>
        <mxCell id="69ecfefc5c41e42c-1" value="airCube&lt;br&gt;Ship Wi-Fi" style="image;html=1;labelBackgroundColor=#ffffff;image=img/lib/clip_art/networking/Wireless_Router_128x128.png;rounded=1;shadow=0;comic=0;strokeWidth=2;fontSize=16;fontColor=#000000;" parent="1" vertex="1">
          <mxGeometry x="720" y="460" width="80" height="80" as="geometry" />
        </mxCell>
        <mxCell id="69ecfefc5c41e42c-2" value="Internet" style="image;html=1;labelBackgroundColor=#ffffff;image=img/lib/clip_art/networking/Cloud_128x128.png;rounded=1;shadow=0;comic=0;strokeWidth=2;fontSize=16;labelPosition=center;verticalLabelPosition=top;align=center;verticalAlign=bottom;fontColor=#000000;" parent="1" vertex="1">
          <mxGeometry x="120" y="110" width="80" height="80" as="geometry" />
        </mxCell>
        <mxCell id="69ecfefc5c41e42c-19" style="edgeStyle=none;rounded=0;html=1;labelBackgroundColor=none;endArrow=none;strokeWidth=2;fontFamily=Verdana;fontSize=16;fontColor=#000000;" parent="1" target="69ecfefc5c41e42c-2" edge="1">
          <mxGeometry relative="1" as="geometry">
            <mxPoint x="160" y="260" as="sourcePoint" />
          </mxGeometry>
        </mxCell>
        <mxCell id="69ecfefc5c41e42c-7" value="PC" style="image;html=1;labelBackgroundColor=#ffffff;image=img/lib/clip_art/computers/Workstation_128x128.png;rounded=1;shadow=0;comic=0;strokeWidth=2;fontSize=16;fontColor=#000000;" parent="1" vertex="1">
          <mxGeometry x="720" y="650" width="80" height="80" as="geometry" />
        </mxCell>
        <mxCell id="69ecfefc5c41e42c-8" value="Smartphone" style="image;html=1;labelBackgroundColor=#ffffff;image=img/lib/clip_art/telecommunication/iPhone_128x128.png;rounded=1;shadow=0;comic=0;strokeWidth=2;fontSize=16;fontColor=#000000;" parent="1" vertex="1">
          <mxGeometry x="960" y="650" width="80" height="80" as="geometry" />
        </mxCell>
        <mxCell id="m7-iunQaiSHCx3-984IF-3" value="NanoStation&lt;br&gt;Wi-Fi Uplink (Client)" style="fontColor=#000000;verticalAlign=top;verticalLabelPosition=bottom;labelPosition=center;align=center;html=1;outlineConnect=0;fillColor=#CCCCCC;strokeColor=#6881B3;gradientColor=none;gradientDirection=north;strokeWidth=2;shape=mxgraph.networks.wireless_hub;fontSize=16;" vertex="1" parent="1">
          <mxGeometry x="485" y="260" width="100" height="85" as="geometry" />
        </mxCell>
        <mxCell id="m7-iunQaiSHCx3-984IF-4" value="NanoStation&lt;br&gt;Wi-Fi Uplink (Master)" style="fontColor=#000000;verticalAlign=top;verticalLabelPosition=bottom;labelPosition=center;align=center;html=1;outlineConnect=0;fillColor=#CCCCCC;strokeColor=#6881B3;gradientColor=none;gradientDirection=north;strokeWidth=2;shape=mxgraph.networks.wireless_hub;fontSize=16;labelBackgroundColor=default;" vertex="1" parent="1">
          <mxGeometry x="830" y="130" width="100" height="85" as="geometry" />
        </mxCell>
        <mxCell id="m7-iunQaiSHCx3-984IF-6" value="EdgeRouter&lt;br&gt;PoE Switch + VPN-Client" style="image;html=1;image=img/lib/clip_art/networking/Router_128x128.png;fontSize=16;fontColor=#000000;" vertex="1" parent="1">
          <mxGeometry x="840" y="300" width="80" height="80" as="geometry" />
        </mxCell>
        <mxCell id="m7-iunQaiSHCx3-984IF-7" value="airCube&lt;br&gt;Ship Wi-Fi" style="image;html=1;labelBackgroundColor=#ffffff;image=img/lib/clip_art/networking/Wireless_Router_128x128.png;rounded=1;shadow=0;comic=0;strokeWidth=2;fontSize=16;fontColor=#000000;" vertex="1" parent="1">
          <mxGeometry x="960" y="460" width="80" height="80" as="geometry" />
        </mxCell>
        <mxCell id="m7-iunQaiSHCx3-984IF-8" value="NanoStation&lt;br&gt;Wi-Fi Uplink (Client)" style="fontColor=#000000;verticalAlign=top;verticalLabelPosition=bottom;labelPosition=center;align=center;html=1;outlineConnect=0;fillColor=#CCCCCC;strokeColor=#6881B3;gradientColor=none;gradientDirection=north;strokeWidth=2;shape=mxgraph.networks.wireless_hub;fontSize=16;" vertex="1" parent="1">
          <mxGeometry x="485" y="80" width="100" height="85" as="geometry" />
        </mxCell>
        <mxCell id="m7-iunQaiSHCx3-984IF-10" value="LWL Backbone" style="html=1;fillColor=#CCCCCC;strokeColor=#6881B3;gradientColor=none;gradientDirection=north;strokeWidth=2;shape=mxgraph.networks.bus;gradientColor=none;gradientDirection=north;fontColor=#ffffff;perimeter=backbonePerimeter;backboneSize=20;fontSize=16;rotation=-90;" vertex="1" parent="1">
          <mxGeometry x="200" y="220" width="260" height="30" as="geometry" />
        </mxCell>
        <mxCell id="m7-iunQaiSHCx3-984IF-14" value="" style="strokeColor=#6881B3;edgeStyle=none;rounded=0;endArrow=none;html=1;strokeWidth=2;fontSize=16;fontColor=#000000;" edge="1" target="m7-iunQaiSHCx3-984IF-10" parent="1">
          <mxGeometry relative="1" as="geometry">
            <mxPoint x="480" y="150" as="sourcePoint" />
          </mxGeometry>
        </mxCell>
        <mxCell id="m7-iunQaiSHCx3-984IF-15" value="" style="strokeColor=#6881B3;edgeStyle=none;rounded=0;endArrow=none;html=1;strokeWidth=2;fontSize=16;fontColor=#000000;exitX=1;exitY=0.5;exitDx=0;exitDy=0;exitPerimeter=0;" edge="1" target="m7-iunQaiSHCx3-984IF-10" parent="1" source="m7-iunQaiSHCx3-984IF-21">
          <mxGeometry relative="1" as="geometry">
            <mxPoint x="280" y="300" as="sourcePoint" />
          </mxGeometry>
        </mxCell>
        <mxCell id="m7-iunQaiSHCx3-984IF-17" value="" style="strokeColor=#6881B3;edgeStyle=none;rounded=0;endArrow=none;html=1;strokeWidth=2;fontSize=16;fontColor=#000000;" edge="1" target="m7-iunQaiSHCx3-984IF-10" parent="1">
          <mxGeometry relative="1" as="geometry">
            <mxPoint x="480" y="330" as="sourcePoint" />
          </mxGeometry>
        </mxCell>
        <mxCell id="m7-iunQaiSHCx3-984IF-21" value="Opennet Gateway&lt;br&gt;VPN-Server" style="fontColor=#000000;verticalAlign=top;verticalLabelPosition=bottom;labelPosition=center;align=center;html=1;outlineConnect=0;fillColor=#CCCCCC;strokeColor=#6881B3;gradientColor=none;gradientDirection=north;strokeWidth=2;shape=mxgraph.networks.virtual_server;fontSize=16;" vertex="1" parent="1">
          <mxGeometry x="120" y="260" width="80" height="90" as="geometry" />
        </mxCell>
        <mxCell id="m7-iunQaiSHCx3-984IF-25" value="Opennet Initiative e.V. - Freifunk Rostock - Schlepper Petersdorf&lt;br&gt;" style="text;strokeColor=none;fillColor=none;html=1;fontSize=24;fontStyle=1;verticalAlign=middle;align=center;fontColor=#000000;" vertex="1" parent="1">
          <mxGeometry x="535" y="20" width="100" height="40" as="geometry" />
        </mxCell>
        <UserObject label="%date{ddd mmm dd yyyy HH:MM:ss}%" placeholders="1" id="m7-iunQaiSHCx3-984IF-29">
          <mxCell style="text;html=1;strokeColor=none;fillColor=none;align=center;verticalAlign=middle;whiteSpace=wrap;overflow=hidden;labelBackgroundColor=default;fontSize=16;fontColor=#000000;opacity=20;" vertex="1" parent="1">
            <mxGeometry x="50" y="770" width="160" height="20" as="geometry" />
          </mxCell>
        </UserObject>
        <mxCell id="m7-iunQaiSHCx3-984IF-41" value="&lt;table border=&quot;1&quot; width=&quot;100%&quot; height=&quot;100%&quot; cellpadding=&quot;4&quot; style=&quot;width:100%;height:100%;border-collapse:collapse;&quot;&gt;&lt;tbody&gt;&lt;tr style=&quot;background-color:#A7C942;color:#ffffff;border:1px solid #98bf21;&quot;&gt;&lt;th align=&quot;left&quot;&gt;Anzahl&lt;/th&gt;&lt;th align=&quot;left&quot;&gt;Position&lt;/th&gt;&lt;th style=&quot;&quot;&gt;Kosten&lt;/th&gt;&lt;/tr&gt;&lt;tr style=&quot;border:1px solid #98bf21;&quot;&gt;&lt;td&gt;3x&lt;/td&gt;&lt;td&gt;Ubiquiti NanoStation 5ac loco&lt;/td&gt;&lt;td style=&quot;text-align: right;&quot;&gt;55,00 €&lt;/td&gt;&lt;/tr&gt;&lt;tr style=&quot;background-color:#EAF2D3;border:1px solid #98bf21;&quot;&gt;&lt;td&gt;1x&lt;/td&gt;&lt;td&gt;Ubiquiti EdgeRouter X-SFP&lt;/td&gt;&lt;td style=&quot;text-align: right;&quot;&gt;90,00 €&lt;/td&gt;&lt;/tr&gt;&lt;tr style=&quot;border:1px solid #98bf21;&quot;&gt;&lt;td&gt;2x&lt;/td&gt;&lt;td&gt;Ubiquiti UISP airCube&lt;/td&gt;&lt;td style=&quot;text-align: right;&quot;&gt;34,00 €&lt;/td&gt;&lt;/tr&gt;&lt;tr style=&quot;background-color:#EAF2D3;border:1px solid #98bf21;&quot;&gt;&lt;td&gt;80 m&lt;/td&gt;&lt;td&gt;Ubiquiti USP Cable Pro&lt;/td&gt;&lt;td style=&quot;text-align: right;&quot;&gt;30,00 €&lt;br&gt;&lt;/td&gt;&lt;/tr&gt;&lt;tr&gt;&lt;td&gt;Div.&lt;/td&gt;&lt;td&gt;Kleinmaterial (Stecker, Buchsen etc.)&lt;/td&gt;&lt;td style=&quot;text-align: right;&quot;&gt;30,00 €&lt;/td&gt;&lt;/tr&gt;&lt;tr&gt;&lt;td&gt;&lt;br&gt;&lt;/td&gt;&lt;td&gt;Summe&lt;/td&gt;&lt;td style=&quot;text-align: right;&quot;&gt;349,00 €&lt;/td&gt;&lt;/tr&gt;&lt;tr&gt;&lt;td&gt;&lt;br&gt;&lt;/td&gt;&lt;td&gt;Anteil Freifunk Opennet Verein&lt;/td&gt;&lt;td style=&quot;text-align: right;&quot;&gt;110,00 €&lt;/td&gt;&lt;/tr&gt;&lt;tr&gt;&lt;td&gt;&lt;br&gt;&lt;/td&gt;&lt;td&gt;&lt;b&gt;Anteil Petersdorf Verein&lt;/b&gt;&lt;/td&gt;&lt;td style=&quot;text-align: right;&quot;&gt;&lt;b&gt;239,00 €&lt;/b&gt;&lt;/td&gt;&lt;/tr&gt;&lt;tr&gt;&lt;td&gt;&lt;b&gt;&lt;br&gt;&lt;/b&gt;&lt;/td&gt;&lt;td&gt;&lt;b&gt;Jahresmitgliedschaft / Internet&lt;/b&gt;&lt;/td&gt;&lt;td style=&quot;text-align: right;&quot;&gt;&lt;b&gt;70,00 €&lt;/b&gt;&lt;/td&gt;&lt;/tr&gt;&lt;/tbody&gt;&lt;/table&gt;" style="text;html=1;strokeColor=#c0c0c0;fillColor=#ffffff;overflow=fill;rounded=0;labelBackgroundColor=default;fontSize=16;fontColor=#000000;opacity=20;" vertex="1" parent="1">
          <mxGeometry x="130" y="440" width="410" height="300" as="geometry" />
        </mxCell>
        <UserObject label="VHS&lt;br&gt;Kabutzenhof" placeholders="1" name="Variable" id="m7-iunQaiSHCx3-984IF-44">
          <mxCell style="text;html=1;strokeColor=none;fillColor=none;align=center;verticalAlign=middle;whiteSpace=wrap;overflow=hidden;labelBackgroundColor=#FFFFCC;fontSize=16;fontColor=#000000;opacity=20;" vertex="1" parent="1">
            <mxGeometry x="370" y="70" width="140" height="50" as="geometry" />
          </mxCell>
        </UserObject>
        <UserObject label="ASVzR&lt;br&gt;Gehlsdorf?" placeholders="1" name="Variable" id="m7-iunQaiSHCx3-984IF-47">
          <mxCell style="text;html=1;strokeColor=none;fillColor=none;align=center;verticalAlign=middle;whiteSpace=wrap;overflow=hidden;labelBackgroundColor=#FFFFCC;fontSize=16;fontColor=#000000;opacity=20;" vertex="1" parent="1">
            <mxGeometry x="370" y="240" width="140" height="50" as="geometry" />
          </mxCell>
        </UserObject>
        <UserObject label="Petersdorf&lt;br&gt;Mast" placeholders="1" name="Variable" id="m7-iunQaiSHCx3-984IF-48">
          <mxCell style="text;html=1;strokeColor=none;fillColor=none;align=center;verticalAlign=middle;whiteSpace=wrap;overflow=hidden;labelBackgroundColor=#FFFFCC;fontSize=16;fontColor=#000000;opacity=20;" vertex="1" parent="1">
            <mxGeometry x="980" y="165" width="140" height="50" as="geometry" />
          </mxCell>
        </UserObject>
        <UserObject label="Petersdorf&lt;br&gt;Innen" placeholders="1" name="Variable" id="m7-iunQaiSHCx3-984IF-50">
          <mxCell style="text;html=1;strokeColor=none;fillColor=none;align=center;verticalAlign=middle;whiteSpace=wrap;overflow=hidden;labelBackgroundColor=#FFFFCC;fontSize=16;fontColor=#000000;opacity=20;" vertex="1" parent="1">
            <mxGeometry x="980" y="315" width="140" height="50" as="geometry" />
          </mxCell>
        </UserObject>
        <mxCell id="m7-iunQaiSHCx3-984IF-52" value="" style="fontColor=#0066CC;verticalAlign=top;verticalLabelPosition=bottom;labelPosition=center;align=center;html=1;outlineConnect=0;fillColor=#CCCCCC;strokeColor=#6881B3;gradientColor=none;gradientDirection=north;strokeWidth=2;shape=mxgraph.networks.comm_link;labelBackgroundColor=#FFFFCC;fontSize=16;opacity=20;rotation=-90;shadow=1;" vertex="1" parent="1">
          <mxGeometry x="716.25" y="108.75" width="15" height="180" as="geometry" />
        </mxCell>
        <mxCell id="m7-iunQaiSHCx3-984IF-54" value="" style="endArrow=none;dashed=1;html=1;dashPattern=1 3;strokeWidth=2;rounded=0;fontSize=16;fontColor=#000000;" edge="1" parent="1">
          <mxGeometry width="50" height="50" relative="1" as="geometry">
            <mxPoint x="790" y="490" as="sourcePoint" />
            <mxPoint x="840" y="440" as="targetPoint" />
          </mxGeometry>
        </mxCell>
        <mxCell id="m7-iunQaiSHCx3-984IF-55" value="" style="endArrow=none;dashed=1;html=1;dashPattern=1 3;strokeWidth=2;rounded=0;fontSize=16;fontColor=#000000;" edge="1" parent="1">
          <mxGeometry width="50" height="50" relative="1" as="geometry">
            <mxPoint x="900" y="440" as="sourcePoint" />
            <mxPoint x="950" y="490" as="targetPoint" />
          </mxGeometry>
        </mxCell>
      </root>
    </mxGraphModel>
  </diagram>
</mxfile>
